<svg width="64" height="33" viewBox="0 0 64 33" fill="none" xmlns="http://www.w3.org/2000/svg">
<path d="M7.71429 0.5L15.4286 4.17599V7.35714L7.71429 3.68115L1.00758e-06 7.35714L8.68525e-07 4.17599L7.71429 0.5Z" fill="#685EEF"/>
<path d="M7.71429 8.78571C3.45306 8.78571 1.00758e-06 12.2388 1.00758e-06 16.5C1.00758e-06 20.7612 3.45306 24.2143 7.71429 24.2143C11.9755 24.2143 15.4286 20.7612 15.4286 16.5C15.4286 12.2388 11.9755 8.78571 7.71429 8.78571Z" fill="#685EEF"/>
<path d="M7.71429 32.5L0 28.824L1.39053e-07 25.6429L7.71429 29.3189L15.4286 25.6429V28.824L7.71429 32.5Z" fill="#685EEF"/>
<path fill-rule="evenodd" clip-rule="evenodd" d="M30.5714 8.78572C26.3102 8.78572 22.8571 12.2388 22.8571 16.5C22.8571 20.7612 26.3102 24.2143 30.5714 24.2143C34.8327 24.2143 38.2857 20.7612 38.2857 16.5C38.2857 12.2388 34.8327 8.78572 30.5714 8.78572ZM25.7959 16.5C25.7959 19.1376 27.9339 21.2755 30.5714 21.2755C33.209 21.2755 35.3469 19.1376 35.3469 16.5C35.3469 13.8624 33.209 11.7245 30.5714 11.7245C27.9339 11.7245 25.7959 13.8624 25.7959 16.5Z" fill="#685EEF"/>
<path fill-rule="evenodd" clip-rule="evenodd" d="M47.7385 18.1604C49.7255 17.6094 51.1884 15.7727 51.203 13.598V13.5612V13.5245C51.1811 10.9016 49.0704 8.78572 46.4721 8.78572H40.2857V11.5629L42.6147 15.3906H40.293V24.2143H43.2043V18.3294H44.427L48.0056 24.2143H51.4286L47.7385 18.1604ZM46.05 15.398H46.4794C47.4838 15.398 48.299 14.5751 48.299 13.5612C48.299 12.5473 47.4838 11.7245 46.4794 11.7245H43.8011L46.05 15.398Z" fill="#685EEF"/>
<path d="M56.3 24.2143H53L56.872 16.5073L53 8.78572H56.3L58.5073 13.2233L60.7733 8.78572H64L56.3 24.2143Z" fill="#685EEF"/>
</svg>
